# xmcd
#
# Track frame offsets: 
#        150
#        26460
#        59830
#        99492
#        136872
#        161422
#        197270
#        223347
#        263707
#
# Disc length: 4072 seconds
#
# Revision: 1
# Processed by: cddbd v1.5.2PL0 Copyright (c) Steve Scherf et al.
# Submitted via: ExactAudioCopy v1.0b6
#
DISCID=7b0fe609
DTITLE=Various Artist - One³ (Qube)
DYEAR=1999
DGENRE=Techno
TTITLE0=Male Or Female - Kiss. Anatomix
TTITLE1=Masa - Walk In Space
TTITLE2=Mind Over Rhythm - Addiction
TTITLE3=Ascendence - The Lost Track
TTITLE4=Voodoo People - Book Of Shadows
TTITLE5=Masa - Replay From Earth
TTITLE6=Clip - Tumbler
TTITLE7=Magnat - Liberate
TTITLE8=Male Or Female - Water. Drowning Dub
EXTD=
EXTT0=
EXTT1=
EXTT2=
EXTT3=
EXTT4=
EXTT5=
EXTT6=
EXTT7=
EXTT8=
PLAYORDER=
